<svg width="97" height="15" viewBox="0 0 97 15" fill="none" xmlns="http://www.w3.org/2000/svg">
<path d="M0.192 14H2.776L3.6 5.456L6.608 13.672H8.2L11.216 5.456L12.032 14H14.624L13.312 0.799999H10.56L7.408 9.056L4.256 0.799999H1.504L0.192 14ZM21.3405 14.256C22.2472 14.256 23.0632 14.072 23.7885 13.704C24.5138 13.3307 25.0872 12.8187 25.5085 12.168C25.9352 11.512 26.1485 10.7573 26.1485 9.904C26.1485 9.05067 25.9352 8.29867 25.5085 7.648C25.0872 6.992 24.5138 6.48 23.7885 6.112C23.0632 5.73867 22.2472 5.552 21.3405 5.552C20.4392 5.552 19.6232 5.73867 18.8925 6.112C18.1672 6.48 17.5912 6.992 17.1645 7.648C16.7432 8.29867 16.5325 9.05067 16.5325 9.904C16.5325 10.7573 16.7432 11.512 17.1645 12.168C17.5912 12.8187 18.1672 13.3307 18.8925 13.704C19.6232 14.072 20.4392 14.256 21.3405 14.256ZM21.3405 12.16C20.9245 12.16 20.5458 12.064 20.2045 11.872C19.8685 11.68 19.6018 11.416 19.4045 11.08C19.2072 10.7387 19.1085 10.3467 19.1085 9.904C19.1085 9.46133 19.2072 9.072 19.4045 8.736C19.6018 8.39467 19.8685 8.128 20.2045 7.936C20.5458 7.744 20.9245 7.648 21.3405 7.648C21.7618 7.648 22.1405 7.744 22.4765 7.936C22.8178 8.128 23.0872 8.39467 23.2845 8.736C23.4872 9.072 23.5885 9.46133 23.5885 9.904C23.5885 10.3467 23.4872 10.7387 23.2845 11.08C23.0872 11.416 22.8178 11.68 22.4765 11.872C22.1405 12.064 21.7618 12.16 21.3405 12.16ZM30.9969 14H32.6369L36.9489 5.808H34.0529L31.8209 10.752L29.5889 5.808H26.6929L30.9969 14ZM38.6438 14H42.2678C43.2064 14 44.0784 13.8347 44.8837 13.504C45.6944 13.168 46.4011 12.7013 47.0038 12.104C47.6118 11.5067 48.0838 10.808 48.4198 10.008C48.7558 9.208 48.9238 8.344 48.9238 7.416C48.9238 6.488 48.7531 5.624 48.4118 4.824C48.0758 4.01867 47.6038 3.31467 46.9958 2.712C46.3931 2.10933 45.6891 1.64 44.8837 1.304C44.0784 0.967999 43.2064 0.799999 42.2678 0.799999H38.6438V14ZM41.2358 11.68V3.12H41.9798C42.7798 3.12 43.4918 3.30667 44.1158 3.68C44.7451 4.05333 45.2384 4.56267 45.5958 5.208C45.9584 5.85333 46.1398 6.58667 46.1398 7.408C46.1398 8.224 45.9584 8.95467 45.5958 9.6C45.2384 10.2453 44.7451 10.7547 44.1158 11.128C43.4918 11.496 42.7798 11.68 41.9798 11.68H41.2358ZM54.5984 14.256C55.1584 14.256 55.681 14.1413 56.1664 13.912C56.657 13.6773 57.089 13.3467 57.4624 12.92V14H59.9184V5.808H57.4624V6.808C57.137 6.41333 56.7237 6.10667 56.2224 5.888C55.721 5.664 55.1797 5.552 54.5984 5.552C53.809 5.552 53.1077 5.744 52.4944 6.128C51.8864 6.50667 51.409 7.024 51.0624 7.68C50.7157 8.33067 50.5424 9.06667 50.5424 9.888C50.5424 10.7307 50.7237 11.4827 51.0864 12.144C51.449 12.8 51.9344 13.3173 52.5424 13.696C53.1557 14.0693 53.841 14.256 54.5984 14.256ZM55.3264 12.168C54.6917 12.168 54.1664 11.9547 53.7504 11.528C53.3344 11.1013 53.1264 10.56 53.1264 9.904C53.1264 9.248 53.3344 8.70667 53.7504 8.28C54.1717 7.85333 54.697 7.64 55.3264 7.64C55.961 7.64 56.4837 7.85333 56.8944 8.28C57.3104 8.70133 57.5184 9.24267 57.5184 9.904C57.5184 10.5653 57.313 11.1093 56.9024 11.536C56.4917 11.9573 55.9664 12.168 55.3264 12.168ZM65.522 14.256C65.8527 14.256 66.1887 14.2133 66.53 14.128C66.8767 14.0427 67.1887 13.9253 67.466 13.776L66.85 11.808C66.6207 11.9787 66.3753 12.064 66.114 12.064C65.634 12.064 65.394 11.7493 65.394 11.12V7.672H67.194V5.808H65.394V2.736H62.938V5.808H61.842V7.672H62.938V11.296C62.938 12.2293 63.1647 12.9573 63.618 13.48C64.0767 13.9973 64.7113 14.256 65.522 14.256ZM72.9734 14.256C73.5334 14.256 74.056 14.1413 74.5414 13.912C75.032 13.6773 75.464 13.3467 75.8374 12.92V14H78.2934V5.808H75.8374V6.808C75.512 6.41333 75.0987 6.10667 74.5974 5.888C74.096 5.664 73.5547 5.552 72.9734 5.552C72.184 5.552 71.4827 5.744 70.8694 6.128C70.2614 6.50667 69.784 7.024 69.4374 7.68C69.0907 8.33067 68.9174 9.06667 68.9174 9.888C68.9174 10.7307 69.0987 11.4827 69.4614 12.144C69.824 12.8 70.3094 13.3173 70.9174 13.696C71.5307 14.0693 72.216 14.256 72.9734 14.256ZM73.7014 12.168C73.0667 12.168 72.5414 11.9547 72.1254 11.528C71.7094 11.1013 71.5014 10.56 71.5014 9.904C71.5014 9.248 71.7094 8.70667 72.1254 8.28C72.5467 7.85333 73.072 7.64 73.7014 7.64C74.336 7.64 74.8587 7.85333 75.2694 8.28C75.6854 8.70133 75.8934 9.24267 75.8934 9.904C75.8934 10.5653 75.688 11.1093 75.2774 11.536C74.8667 11.9573 74.3414 12.168 73.7014 12.168ZM81.9424 9.952H83.7424L84.0624 0.24H81.6224L81.9424 9.952ZM82.8304 14.256C83.273 14.256 83.649 14.1013 83.9584 13.792C84.273 13.4773 84.4304 13.0987 84.4304 12.656C84.4304 12.2133 84.273 11.8373 83.9584 11.528C83.649 11.2133 83.273 11.056 82.8304 11.056C82.3877 11.056 82.009 11.2133 81.6944 11.528C81.385 11.8373 81.2304 12.2133 81.2304 12.656C81.2304 13.0987 81.385 13.4773 81.6944 13.792C82.009 14.1013 82.3877 14.256 82.8304 14.256ZM87.0651 14H91.8091C93.1211 14 94.1611 13.672 94.9291 13.016C95.6971 12.36 96.0811 11.4533 96.0811 10.296C96.0811 9.384 95.8331 8.648 95.3371 8.088C94.8465 7.528 94.1398 7.17333 93.2171 7.024C94.3478 6.45867 94.9131 5.49067 94.9131 4.12C94.9131 3.016 94.5531 2.18667 93.8331 1.632C93.1185 1.07733 92.1238 0.799999 90.8491 0.799999H87.0651V14ZM89.6491 6.144V2.808H90.2491C91.6945 2.808 92.4171 3.35733 92.4171 4.456C92.4171 5.00533 92.2305 5.424 91.8571 5.712C91.4838 6 90.9478 6.144 90.2491 6.144H89.6491ZM89.6491 11.984V8.376H90.9291C91.7185 8.376 92.3211 8.536 92.7371 8.856C93.1585 9.176 93.3691 9.62933 93.3691 10.216C93.3691 11.3947 92.5558 11.984 90.9291 11.984H89.6491Z" fill="#1B1B1B"/>
</svg>
