<svg width="24" height="24" viewBox="0 0 24 24" fill="none" xmlns="http://www.w3.org/2000/svg">
<path d="M12 2.72461C10.7819 2.72461 9.57578 2.96452 8.45044 3.43065C7.32511 3.89678 6.3026 4.58 5.4413 5.4413C3.70183 7.18077 2.72461 9.53999 2.72461 12C2.72461 16.0997 5.38664 19.5779 9.06896 20.8116C9.53273 20.8858 9.68113 20.5982 9.68113 20.3478V18.7803C7.11186 19.3368 6.56461 17.5374 6.56461 17.5374C6.13794 16.4614 5.53504 16.1739 5.53504 16.1739C4.69099 15.5988 5.59997 15.6174 5.59997 15.6174C6.52751 15.6823 7.0191 16.5727 7.0191 16.5727C7.82606 17.9826 9.18954 17.5652 9.71823 17.3426C9.80171 16.7397 10.0429 16.3316 10.3026 16.0997C8.24345 15.8678 6.08229 15.0701 6.08229 11.5362C6.08229 10.5066 6.43475 9.68113 7.03765 9.02258C6.9449 8.7907 6.62026 7.82606 7.13041 6.57388C7.13041 6.57388 7.90954 6.32345 9.68113 7.51997C10.4139 7.31591 11.2116 7.21388 12 7.21388C12.7884 7.21388 13.5861 7.31591 14.3188 7.51997C16.0904 6.32345 16.8695 6.57388 16.8695 6.57388C17.3797 7.82606 17.055 8.7907 16.9623 9.02258C17.5652 9.68113 17.9177 10.5066 17.9177 11.5362C17.9177 15.0794 15.7472 15.8585 13.6788 16.0904C14.0127 16.3779 14.3188 16.9437 14.3188 17.8063V20.3478C14.3188 20.5982 14.4672 20.895 14.9403 20.8116C18.6226 19.5687 21.2753 16.0997 21.2753 12C21.2753 10.7819 21.0354 9.57578 20.5693 8.45044C20.1032 7.32511 19.4199 6.3026 18.5586 5.4413C17.6973 4.58 16.6748 3.89678 15.5495 3.43065C14.4242 2.96452 13.218 2.72461 12 2.72461V2.72461Z" fill="#F7F7F9"/>
</svg>
