<svg width="24" height="24" viewBox="0 0 24 24" fill="none" xmlns="http://www.w3.org/2000/svg">
<path d="M17.25 13C17.25 13.3315 17.1183 13.6495 16.8839 13.8839C16.6495 14.1183 16.3315 14.25 16 14.25C15.6685 14.25 15.3505 14.1183 15.1161 13.8839C14.8817 13.6495 14.75 13.3315 14.75 13C14.75 12.6685 14.8817 12.3505 15.1161 12.1161C15.3505 11.8817 15.6685 11.75 16 11.75C16.3315 11.75 16.6495 11.8817 16.8839 12.1161C17.1183 12.3505 17.25 12.6685 17.25 13ZM22 12C22 17.5 17.5 22 12 22H2V12C2 6.5 6.5 2 12 2C17.5 2 22 6.5 22 12ZM7 18C8.41 19.23 10 20 12 20C16.41 20 20 16.41 20 12C20 11.21 19.88 10.45 19.67 9.74C18.95 9.91 18.2 10 17.42 10C15.42 10 13.57 9.4 12 8.39C12 8.39 10.54 13.76 8.03 13C7.37 12.8 7 13.31 7 14" fill="#1B1B1B"/>
</svg>
