<svg width="24" height="24" viewBox="0 0 24 24" fill="none" xmlns="http://www.w3.org/2000/svg">
<path d="M20.6724 11.1652H12.1669V13.6974H18.2052C17.8991 17.2313 14.9588 18.7432 12.1762 18.7432C8.62375 18.7432 5.50722 15.942 5.50722 12C5.50722 8.19707 8.47534 5.25678 12.1855 5.25678C15.0516 5.25678 16.7304 7.08403 16.7304 7.08403L18.4927 5.24751C18.4927 5.24751 16.2295 2.72461 12.0927 2.72461C6.82433 2.72461 2.75244 7.17678 2.75244 12C2.75244 16.684 6.58317 21.2753 12.2319 21.2753C17.1942 21.2753 20.8116 17.8713 20.8116 12.844C20.8116 11.7774 20.6724 11.1652 20.6724 11.1652Z" fill="#F7F7F9"/>
</svg>
