<svg width="24" height="24" viewBox="0 0 24 24" fill="none" xmlns="http://www.w3.org/2000/svg">
<path d="M20.8401 2.17993L16.9101 2.95993L19.6501 6.49993L21.6201 6.09993L20.8401 2.17993V2.17993ZM13.9701 3.53993L12.0001 3.92993L14.7501 7.45993L16.7101 7.06993L13.9701 3.53993V3.53993ZM9.07008 4.49993L7.10008 4.90993L9.85008 8.43993L11.8101 8.04993L9.07008 4.49993ZM4.16007 5.49993L3.18008 5.68993C2.92247 5.74073 2.67743 5.84188 2.459 5.98758C2.24057 6.13328 2.05305 6.32066 1.90719 6.53898C1.76133 6.75731 1.66001 7.00227 1.60902 7.25984C1.55803 7.51741 1.55839 7.7825 1.61008 8.03993L2.00008 9.99993L6.90008 9.02993L4.16007 5.49993ZM20.0001 11.9999V19.9999H4.00008V11.9999H20.0001ZM22.0001 9.99993H2.00008V19.9999C2.00008 20.5304 2.21079 21.0391 2.58586 21.4141C2.96093 21.7892 3.46964 21.9999 4.00008 21.9999H20.0001C21.1101 21.9999 22.0001 21.1099 22.0001 19.9999V9.99993Z" fill="#1B1B1B"/>
</svg>
