<svg width="24" height="24" viewBox="0 0 24 24" fill="none" xmlns="http://www.w3.org/2000/svg">
<path d="M12 2.76172C6.89852 2.76172 2.72461 6.92636 2.72461 12.0556C2.72461 16.6933 6.11939 20.5426 10.553 21.2382V14.7455H8.19707V12.0556H10.553V10.0058C10.553 7.67766 11.935 6.39766 14.0591 6.39766C15.0701 6.39766 16.1275 6.57389 16.1275 6.57389V8.86491H14.9588C13.8087 8.86491 13.4469 9.57911 13.4469 10.3119V12.0556H16.0255L15.6081 14.7455H13.4469V21.2382C15.6326 20.8931 17.6229 19.7778 19.0585 18.0939C20.494 16.41 21.2803 14.2684 21.2753 12.0556C21.2753 6.92636 17.1014 2.76172 12 2.76172V2.76172Z" fill="#F7F7F9"/>
</svg>
