<svg width="24" height="24" viewBox="0 0 24 24" fill="none" xmlns="http://www.w3.org/2000/svg">
<path d="M20.84 2.17993L16.91 2.95993L19.65 6.49993L21.62 6.09993L20.84 2.17993V2.17993ZM13.97 3.53993L12 3.92993L14.75 7.45993L16.71 7.06993L13.97 3.53993V3.53993ZM9.06995 4.49993L7.09995 4.90993L9.84995 8.43993L11.81 8.04993L9.06995 4.49993ZM4.15995 5.49993L3.17995 5.68993C2.92235 5.74073 2.67731 5.84188 2.45888 5.98758C2.24045 6.13328 2.05293 6.32066 1.90707 6.53898C1.76121 6.75731 1.65988 7.00227 1.6089 7.25984C1.55791 7.51741 1.55827 7.7825 1.60995 8.03993L1.99995 9.99993L6.89995 9.02993L4.15995 5.49993ZM20 11.9999V19.9999H3.99995V11.9999H20ZM22 9.99993H1.99995V19.9999C1.99995 20.5304 2.21067 21.0391 2.58574 21.4141C2.96081 21.7892 3.46952 21.9999 3.99995 21.9999H20C21.11 21.9999 22 21.1099 22 19.9999V9.99993Z" fill="#F7F7F9"/>
</svg>
